<svg width="342" height="342" viewBox="0 0 342 342" fill="none" xmlns="http://www.w3.org/2000/svg">
<circle cx="171" cy="171" r="171" fill="white"/>
<path d="M104.039 140.053H74.3915C74.9728 131.882 77.4919 123.905 81.7549 116.902C86.4055 109.509 92.6062 103.283 100.357 99.0035C107.721 94.5289 116.44 92.3889 125.16 92.3889C137.562 92.3889 149.576 97.058 158.877 105.424L160.233 106.396L161.202 107.174L162.171 106.396L163.334 105.229C170.503 98.8089 179.417 94.5289 188.912 92.9725C198.407 91.4161 208.289 92.5834 217.203 96.4743C225.922 100.171 233.674 106.396 239.099 114.373C244.331 121.96 247.238 130.715 247.819 139.858H218.172C217.396 134.995 215.071 130.715 211.583 127.407C207.708 123.905 202.67 121.96 197.244 121.96C192.012 121.96 186.78 123.905 182.905 127.407C179.223 130.715 176.898 135.189 176.123 140.053H146.088C145.313 135.384 142.987 130.909 139.5 127.602C135.624 124.1 130.586 121.96 125.354 121.96C123.61 121.96 121.672 122.155 119.928 122.544C118.184 122.933 116.634 123.516 115.084 124.489C111.983 126.045 109.465 128.38 107.527 131.298C105.783 133.827 104.62 136.94 104.039 140.053Z" fill="#252121"/>
<path d="M84.8513 102.895C80.5883 107.369 76.9066 112.427 74 117.875V92H99.9657C94.3462 94.9182 89.3081 98.4201 84.8513 102.895Z" fill="#252121"/>
<path d="M265.644 197.251C265.644 210.674 260.606 223.514 251.498 233.242C242.778 242.58 231.152 248.027 218.75 249V218.651C221.851 218.067 224.951 216.9 227.664 214.954C230.764 212.814 233.09 209.896 234.64 206.394C236.19 202.892 236.771 199.196 236.577 195.5C236.19 191.803 235.027 188.107 232.896 184.994C232.702 184.8 232.508 184.605 232.508 184.411L231.346 182.854L230.377 181.687L229.214 182.66L227.858 183.827C220.495 189.468 211.774 192.971 202.667 193.943C193.56 194.916 184.259 193.165 176.12 189.08C167.788 184.8 160.618 178.38 155.58 170.597C150.736 163.205 148.023 154.45 147.442 145.501H176.701C177.477 150.365 179.802 154.839 183.29 158.147C187.165 161.843 192.204 163.789 197.435 163.789C202.667 163.789 207.705 161.843 211.581 158.147C215.069 154.839 217.394 150.365 218.169 145.501H247.429C247.235 148.419 246.848 151.337 246.266 154.256L246.072 155.423L245.879 156.201L247.235 157.563C252.855 162.427 257.505 168.458 260.606 175.267C264.094 182.076 265.644 189.663 265.644 197.251Z" fill="#252121"/>
</svg>
